<svg width="322" height="156" viewBox="0 0 322 156" fill="none" xmlns="http://www.w3.org/2000/svg">
<path d="M62.2408 0L0 138.853L9.33612 155.611H84.0251L68.4649 126.882H38.3818L57.0541 76.6083L69.5022 46.6832L72.6142 55.0622L116.183 155.611H255.187L242.739 125.685H215.768C229.876 83.5509 202.974 68.2293 187.76 65.8353V62.2442C192.739 55.541 191.909 37.9051 190.872 29.9251C189.212 8.85783 169.433 1.197 159.751 0H108.921L122.407 29.9251H154.565C157.677 29.9251 164.108 32.7979 164.938 44.2892C165.768 55.7804 158.368 61.0472 154.565 62.2442H139.004L154.565 93.3664H180.498C184.302 92.9674 192.117 94.8028 192.946 105.336C193.776 115.87 186.377 120.099 182.573 120.897H132.78L78.8383 0H62.2408Z" fill="#FF0000"/>
<path d="M63.2781 102.942V89.7754H74.6889V102.942H63.2781Z" fill="#FF0000"/>
<path d="M235.478 101.745V89.7754H245.851V101.745H235.478Z" fill="#FF0000"/>
<path d="M321.577 154.414H288.382L240.664 46.6832L233.403 58.6532L218.88 32.3191L233.403 1.197H250L321.577 154.414Z" fill="#FF0000"/>
</svg>
