<svg xmlns="http://www.w3.org/2000/svg" width="1440" height="201" fill="none">
    <path fill="#2F2F34"
        d="M-34.985 196 31.655 0h90.72l66.36 196h-72.8l-8.4-30.8h-61.6l-8.4 30.8h-72.52Zm94.36-80.92h34.16l-6.72-24.64c-2.8-10.36-7.28-26.6-10.36-40.6h-.28c-3.64 15.96-6.72 28.28-10.08 40.6l-6.72 24.64ZM196.293 196V0h101.64c40.88 0 83.16 8.12 83.16 51.8 0 21.28-12.32 35.56-32.76 43.4 23.8 7 38.36 22.96 38.36 46.48 0 47.32-40.04 54.32-89.32 54.32h-101.08Zm68.88-45.64h25.76c16.24 0 26.32-1.4 26.32-16.24 0-16.52-12.32-17.36-24.92-17.36h-27.16v33.6Zm0-73.64h22.96c13.16 0 24.36-1.12 24.36-16.24 0-14.84-11.48-16.24-24.36-16.24h-22.96v32.48Zm237.993 124.04c-69.16 0-109.48-35.28-109.48-103.32 0-62.16 39.48-102.2 109.48-102.2 69.44 0 108.92 40.32 108.92 102.2 0 62.72-40.04 103.32-108.92 103.32Zm-35.28-103.32c0 17.92 2.24 32.48 9.52 41.16 5.88 7.28 14.56 10.36 25.76 10.36 11.48 0 19.88-3.36 25.76-10.36 7.28-8.96 9.24-23.52 9.24-41.16 0-17.36-2.24-31.92-9.52-40.32-5.88-7-14.28-10.08-25.2-10.08-11.48 0-19.88 3.08-25.76 9.8-7.56 8.4-9.8 23.24-9.8 40.6Zm254.835 103.32c-64.96 0-96.88-23.24-96.88-75.04V0h70.84v120.12c0 18.48 11.2 25.2 26.04 25.2 14.56 0 25.76-6.72 25.76-25.48V0h71.12v125.44c0 52.08-32.2 75.32-96.88 75.32Zm166.11-4.76V56.56h-59.36V0h188.439v56.56h-59.079V196h-70Zm272.089 4.76c-64.96 0-96.88-23.24-96.88-75.04V0h70.84v120.12c0 18.48 11.2 25.2 26.04 25.2 14.56 0 25.76-6.72 25.76-25.48V0h71.12v125.44c0 52.08-32.2 75.32-96.88 75.32Zm211.19 0c-56.28 0-100.24-18.76-102.48-67.76l72.24-5.32c-.28 24.92 15.68 30.52 30.8 30.52 14 0 24.92-4.2 24.92-16.8 0-10.92-14.28-12.32-39.2-17.64-52.08-10.92-84-22.96-84-66.64 0-42 41.44-61.88 91.84-61.88 49.84 0 92.4 15.4 96.6 62.16l-70.28 6.72c-.56-22.4-12.04-27.16-26.32-27.16-14 0-22.12 5.04-22.12 14.56 0 9.24 12.88 12.04 33.32 16.24 51.8 10.08 91.28 21.84 91.28 69.72 0 49.28-49.56 63.28-96.6 63.28Z" />
</svg>