<svg width="67" height="39" viewBox="0 0 67 39" fill="none" xmlns="http://www.w3.org/2000/svg">
<path d="M23.2 8.6V31H18.016V21.816H7.84V31H2.656V8.6H7.84V17.432H18.016V8.6H23.2Z" fill="white"/>
<rect x="31" y="4" width="36" height="31" rx="4" fill="#EC221F"/>
<path d="M38 26.99L38.01 25.39L44.4 19.64C44.9333 19.16 45.29 18.7067 45.47 18.28C45.6567 17.8467 45.75 17.4033 45.75 16.95C45.75 16.3967 45.6233 15.8967 45.37 15.45C45.1167 15.0033 44.77 14.65 44.33 14.39C43.8967 14.13 43.4033 14 42.85 14C42.2767 14 41.7667 14.1367 41.32 14.41C40.8733 14.6767 40.52 15.0333 40.26 15.48C40.0067 15.9267 39.8833 16.4133 39.89 16.94H38.07C38.07 16.0333 38.28 15.2333 38.7 14.54C39.12 13.84 39.69 13.2933 40.41 12.9C41.1367 12.5 41.96 12.3 42.88 12.3C43.7733 12.3 44.5733 12.5067 45.28 12.92C45.9867 13.3267 46.5433 13.8833 46.95 14.59C47.3633 15.29 47.57 16.0833 47.57 16.97C47.57 17.5967 47.49 18.14 47.33 18.6C47.1767 19.06 46.9367 19.4867 46.61 19.88C46.2833 20.2667 45.8733 20.68 45.38 21.12L40.07 25.89L39.84 25.29H47.57V26.99H38ZM55.7919 27V24.35H49.1719V22.66L53.9219 12.6H55.9419L51.1919 22.66H55.7919V18.61H57.5919V22.66H59.0919V24.35H57.5919V27H55.7919Z" fill="white"/>
</svg>
