<svg xmlns="http://www.w3.org/2000/svg" width="128" height="37" fill="none">
    <path fill="#2F2F34"
        d="M98.414 35.934c-.41 0-.7-.12-.87-.358-.171-.273-.205-.614-.103-1.024l4.044-18.223c.136-.648.085-1.16-.154-1.536-.239-.41-.631-.614-1.177-.614s-1.092.17-1.638.512c-.41.239-.734.358-.973.358a.953.953 0 0 1-.614-.204.953.953 0 0 1-.205-.615c0-.58.342-1.177 1.024-1.791.683-.615 1.519-1.127 2.508-1.536 1.024-.444 1.997-.665 2.918-.665 1.297 0 2.338.358 3.123 1.075.819.682 1.228 1.603 1.228 2.764 0 .716-.051 1.399-.153 2.047-.103.614-.325 1.672-.666 3.174-.034.068-.017.12.051.154.069 0 .12-.035.154-.103.819-1.809 1.74-3.378 2.764-4.71 1.024-1.33 2.099-2.337 3.225-3.02 1.16-.716 2.303-1.074 3.43-1.074 1.262 0 2.303.392 3.122 1.177.853.785 1.28 1.774 1.28 2.969 0 1.228-.376 2.286-1.126 3.174-.717.853-1.587 1.28-2.611 1.28-.683 0-1.211-.188-1.587-.564-.375-.375-.768-.938-1.177-1.689-.307-.512-.546-.87-.717-1.075-.136-.205-.341-.307-.614-.307-.648 0-1.485.614-2.508 1.843-1.024 1.228-1.997 2.73-2.918 4.504-.887 1.775-1.485 3.413-1.792 4.914l-1.689 8.293a1.4 1.4 0 0 1-.358.665c-.137.137-.341.205-.614.205h-4.607ZM88.639 29.945c-.205.683-.205 1.229 0 1.638.239.41.648.614 1.228.614.444 0 .904-.12 1.382-.358a6.06 6.06 0 0 0 1.434-1.075c.272-.273.511-.46.716-.563.205-.137.393-.205.563-.205.273 0 .478.12.614.359.137.204.171.46.103.767-.24.956-.785 1.877-1.638 2.765-.82.853-1.826 1.535-3.02 2.047-1.16.546-2.32.82-3.481.82-1.297 0-2.32-.308-3.071-.922-.751-.649-1.127-1.502-1.127-2.56 0-1.023.308-2.303.922-3.839.034-.136.017-.222-.051-.256-.069-.068-.137-.05-.205.051-1.297 2.287-2.884 4.113-4.76 5.478-1.877 1.365-3.72 2.047-5.529 2.047-1.774 0-3.225-.648-4.351-1.945-1.092-1.297-1.638-3.003-1.638-5.119 0-3.174.75-6.262 2.252-9.265 1.536-3.037 3.515-5.494 5.938-7.371 2.457-1.877 4.965-2.816 7.525-2.816.921 0 1.706.086 2.355.256a12.08 12.08 0 0 1 1.996.615c.819.273 1.382.41 1.689.41.58 0 1.28-.188 2.099-.564.819-.341 1.484-.512 1.996-.512.478 0 .82.154 1.024.461.205.307.239.717.102 1.229L88.64 29.944Zm-12.388 1.28c.921 0 1.911-.444 2.969-1.331 1.058-.887 2.03-2.065 2.918-3.532a19.377 19.377 0 0 0 2.15-4.76c.887-3.038 1.33-4.778 1.33-5.222 0-1.194-.272-2.099-.819-2.713-.511-.614-1.28-.921-2.303-.921-1.365 0-2.764.75-4.197 2.252-1.4 1.467-2.577 3.344-3.532 5.63-.922 2.287-1.382 4.505-1.382 6.655 0 1.229.255 2.201.767 2.918.512.683 1.212 1.024 2.099 1.024ZM55.022 10.238c2.013 0 3.805.443 5.374 1.33 1.604.888 2.85 2.116 3.737 3.686.887 1.536 1.331 3.276 1.331 5.221 0 2.9-.648 5.597-1.945 8.088-1.297 2.491-3.088 4.488-5.375 5.989-2.252 1.467-4.743 2.201-7.473 2.201-2.082 0-3.925-.444-5.529-1.33a9.667 9.667 0 0 1-3.685-3.635c-.888-1.57-1.331-3.361-1.331-5.375 0-3.105.7-5.887 2.099-8.344 1.433-2.457 3.293-4.368 5.579-5.733 2.286-1.399 4.692-2.098 7.218-2.098Zm-3.635 23.956c1.434 0 2.645-.836 3.635-2.509 1.023-1.672 1.774-3.668 2.252-5.989.478-2.354.716-4.47.716-6.347 0-2.013-.324-3.6-.972-4.76-.614-1.16-1.519-1.74-2.713-1.74-1.4 0-2.61.818-3.634 2.456-.99 1.638-1.74 3.566-2.253 5.785-.512 2.218-.767 4.146-.767 5.784 0 2.32.324 4.129.972 5.426.683 1.262 1.604 1.894 2.764 1.894ZM37.478 33.528c.307.035.53.154.666.359.136.204.188.477.153.819-.068.41-.204.733-.41.972-.204.24-.477.359-.818.359l-.922-.052c-1.296 0-2.593-.017-3.89-.05-1.399.033-2.798.05-4.197.05a9.035 9.035 0 0 1-1.075.052c-.58 0-1.058-.103-1.433-.307-.342-.24-.615-.666-.82-1.28l-3.122-9.982c-.341-1.092-.75-1.826-1.229-2.201-.443-.375-1.177-.563-2.2-.563h-2.56l-1.792 8.088c-.307 1.262-.17 2.167.41 2.713.58.546 1.672.87 3.276.972.375.034.648.17.819.41.205.204.273.495.205.87-.034.41-.154.734-.359.973a.982.982 0 0 1-.716.307 86.06 86.06 0 0 1-3.379-.052c-1.57 0-3.156-.017-4.76-.05-1.433.033-2.884.05-4.351.05-.887.035-2.252.052-4.095.052a.9.9 0 0 1-.666-.256c-.17-.171-.239-.444-.204-.82.034-.477.153-.835.358-1.074.17-.24.495-.376.972-.41 1.843-.17 3.106-.512 3.788-1.024.717-.546 1.229-1.467 1.536-2.764l5.426-23.444c.205-.956.188-1.672-.051-2.15-.24-.512-.683-.87-1.331-1.075-.649-.239-1.553-.392-2.713-.46-.75-.035-1.04-.512-.87-1.434C7.26.376 7.653 0 8.3 0c1.433 0 2.56.017 3.379.051 1.672 0 3.327.017 4.965.051l5.016-.05A50.9 50.9 0 0 1 24.221 0c2.969 0 5.494.46 7.576 1.382 2.115.887 3.702 2.15 4.76 3.788 1.092 1.604 1.638 3.498 1.638 5.682 0 3.003-.938 5.426-2.815 7.269-1.843 1.843-4.351 3.054-7.525 3.634l2.61 7.115c.376.99.888 1.809 1.536 2.457a7.067 7.067 0 0 0 2.355 1.485c.921.341 1.962.58 3.122.716Zm-16.226-14.69c1.945 0 3.617-.393 5.016-1.178 1.4-.785 2.44-1.826 3.123-3.123.716-1.33 1.075-2.78 1.075-4.35 0-2.492-.768-4.317-2.304-5.478-1.501-1.194-3.276-1.791-5.323-1.791-1.127 0-1.929.222-2.406.665-.478.444-.854 1.28-1.127 2.508l-3.02 12.746h4.966ZM121.654 34.349c-.533 0-1.005-.122-1.415-.367a2.507 2.507 0 0 1-.956-1.022c-.228-.445-.341-.952-.341-1.52 0-.593.122-1.126.367-1.598.253-.48.598-.856 1.035-1.126.445-.28.939-.42 1.48-.42.62 0 1.127.153 1.52.459.393.306.589.703.589 1.192 0 .332-.1.603-.301.812a.966.966 0 0 1-.747.315.903.903 0 0 1-.576-.197.646.646 0 0 1-.236-.498c0-.113.017-.21.052-.288.044-.087.105-.179.184-.275.061-.078.105-.144.131-.196a.414.414 0 0 0 .052-.21.547.547 0 0 0-.196-.432.668.668 0 0 0-.472-.17c-.279 0-.546.1-.799.3a2.18 2.18 0 0 0-.616.813c-.148.332-.223.69-.223 1.074 0 .384.079.742.236 1.074.158.324.367.581.629.773.271.184.568.275.891.275.358 0 .664-.078.917-.235.262-.158.472-.393.629-.708.07-.13.166-.196.288-.196.061 0 .105.021.131.065.035.044.052.1.052.17 0 .332-.113.664-.34.996a2.709 2.709 0 0 1-.865.825c-.358.21-.725.315-1.1.315Zm-.184 2.66a5.72 5.72 0 0 1-2.882-.747 5.541 5.541 0 0 1-2.07-2.044c-.497-.865-.746-1.821-.746-2.87 0-1.047.249-2.003.746-2.868a5.54 5.54 0 0 1 2.07-2.044 5.72 5.72 0 0 1 2.882-.747 5.64 5.64 0 0 1 2.882.76 5.525 5.525 0 0 1 2.07 2.044c.516.865.773 1.817.773 2.856 0 1.04-.257 1.991-.773 2.856a5.527 5.527 0 0 1-2.07 2.044 5.64 5.64 0 0 1-2.882.76Zm0-.787c.891 0 1.708-.21 2.45-.629a4.777 4.777 0 0 0 1.782-1.755 4.87 4.87 0 0 0 .655-2.49c0-.907-.219-1.733-.655-2.475a4.652 4.652 0 0 0-1.782-1.756 4.818 4.818 0 0 0-2.45-.642c-.882 0-1.698.214-2.449.642a4.674 4.674 0 0 0-1.769 1.756c-.428.742-.642 1.568-.642 2.476 0 .908.214 1.738.642 2.489a4.801 4.801 0 0 0 1.769 1.755 4.94 4.94 0 0 0 2.449.63Z"
        style="fill:#2f2f34;fill:color(display-p3 .1843 .1843 .2039);fill-opacity:1" />
</svg>