<svg xmlns="http://www.w3.org/2000/svg" width="20" height="22" fill="none">
    <path fill="#2F2F34" fill-opacity=".5"
        d="M10 5.08c2.033 0 3.681-.958 3.681-2.14C13.681 1.758 12.033.8 10 .8c-2.033 0-3.682.958-3.682 2.14 0 1.182 1.649 2.14 3.682 2.14ZM10 21.2c2.033 0 3.681-.959 3.681-2.14 0-1.183-1.648-2.141-3.681-2.141-2.033 0-3.682.958-3.682 2.14 0 1.182 1.649 2.14 3.682 2.14ZM4.869 8.04c1.016-1.76 1.01-3.665-.014-4.255-1.025-.591-2.68.356-3.696 2.115-1.017 1.76-1.01 3.664.014 4.255 1.025.591 2.68-.356 3.696-2.115ZM18.842 16.1c1.017-1.76 1.01-3.665-.014-4.256-1.025-.591-2.68.356-3.696 2.115-1.017 1.76-1.01 3.665.014 4.256 1.025.59 2.68-.356 3.696-2.116ZM4.855 18.215c1.024-.59 1.03-2.496.014-4.255-1.016-1.76-2.671-2.707-3.696-2.116C.15 12.437.142 14.341 1.16 16.1c1.016 1.76 2.671 2.706 3.696 2.115ZM18.827 10.155c1.025-.591 1.031-2.496.015-4.256-1.017-1.759-2.671-2.706-3.696-2.115-1.025.591-1.031 2.497-.015 4.256 1.017 1.76 2.672 2.706 3.696 2.115Z"
        style="fill:#2f2f34;fill:color(display-p3 .1843 .1843 .2039);fill-opacity:.5" />
</svg>