<svg xmlns="http://www.w3.org/2000/svg" width="1328" height="386" fill="none">
    <path fill="#2F2F34"
        d="M1027.5 374.796c-4.27 0-7.3-1.246-9.08-3.737-1.79-2.848-2.14-6.407-1.07-10.678l42.22-190.068c1.42-6.763.89-12.102-1.61-16.017-2.49-4.272-6.59-6.407-12.29-6.407-5.7 0-11.4 1.78-17.1 5.339-4.28 2.491-7.66 3.737-10.15 3.737-2.5 0-4.64-.712-6.42-2.135-1.42-1.78-2.14-3.916-2.14-6.407 0-6.051 3.57-12.28 10.69-18.687 7.13-6.406 15.86-11.745 26.19-16.017 10.69-4.627 20.84-6.94 30.46-6.94 13.54 0 24.41 3.737 32.6 11.212 8.56 7.118 12.83 16.728 12.83 28.83 0 7.475-.53 14.593-1.6 21.356-1.07 6.407-3.39 17.441-6.95 33.102-.36.712-.18 1.246.53 1.602.72 0 1.25-.356 1.61-1.068 8.55-18.865 18.17-35.238 28.86-49.119 10.69-13.881 21.91-24.381 33.67-31.5 12.11-7.475 24.05-11.212 35.8-11.212 13.19 0 24.05 4.093 32.61 12.28 8.9 8.186 13.36 18.508 13.36 30.966 0 12.813-3.92 23.847-11.76 33.102-7.48 8.898-16.57 13.347-27.26 13.347-7.12 0-12.65-1.957-16.57-5.873-3.91-3.915-8.01-9.788-12.29-17.618-3.2-5.339-5.7-9.077-7.48-11.212-1.42-2.136-3.56-3.204-6.41-3.204-6.77 0-15.5 6.407-26.19 19.221-10.69 12.813-20.84 28.474-30.46 46.983-9.27 18.508-15.5 35.593-18.71 51.254l-17.64 86.492c-.71 2.847-1.95 5.161-3.74 6.941-1.42 1.423-3.56 2.135-6.41 2.135h-48.1ZM925.444 312.33c-2.138 7.119-2.138 12.814 0 17.085 2.494 4.271 6.769 6.407 12.826 6.407 4.632 0 9.442-1.246 14.43-3.738 5.345-2.847 10.333-6.585 14.965-11.212 2.85-2.847 5.344-4.805 7.482-5.873 2.137-1.423 4.097-2.135 5.879-2.135 2.85 0 4.988 1.246 6.413 3.737 1.425 2.136 1.781 4.805 1.069 8.009-2.494 9.966-8.195 19.576-17.102 28.83-8.551 8.899-19.062 16.017-31.532 21.356-12.114 5.695-24.228 8.543-36.342 8.543-13.539 0-24.228-3.204-32.067-9.611-7.838-6.762-11.757-15.661-11.757-26.695 0-10.678 3.206-24.025 9.62-40.042.356-1.424.178-2.314-.535-2.67-.712-.711-1.425-.533-2.137.534-13.54 23.848-30.107 42.89-49.703 57.128-19.596 14.237-38.836 21.356-57.72 21.356-18.527 0-33.669-6.763-45.427-20.289-11.401-13.525-17.102-31.322-17.102-53.39 0-33.101 7.838-65.313 23.515-96.635 16.033-31.678 36.698-57.306 61.995-76.882 25.653-19.576 51.841-29.364 78.563-29.364 9.62 0 17.814.889 24.584 2.669 6.769 1.424 13.717 3.559 20.843 6.407 8.551 2.847 14.43 4.271 17.637 4.271 6.057 0 13.361-1.958 21.912-5.873 8.551-3.559 15.498-5.339 20.843-5.339 4.988 0 8.551 1.602 10.688 4.805 2.138 3.204 2.495 7.475 1.069 12.814L925.444 312.33ZM796.11 325.677c9.619 0 19.952-4.627 30.997-13.881 11.045-9.254 21.199-21.534 30.463-36.839 9.62-15.305 17.102-31.856 22.447-49.653 9.263-31.678 13.895-49.83 13.895-54.457 0-12.458-2.85-21.89-8.551-28.297-5.344-6.407-13.361-9.61-24.05-9.61-14.252 0-28.86 7.83-43.824 23.491-14.608 15.305-26.9 34.882-36.876 58.729-9.62 23.848-14.43 46.983-14.43 69.407 0 12.814 2.672 22.958 8.017 30.432 5.344 7.119 12.648 10.678 21.912 10.678ZM574.461 106.779c21.021 0 39.726 4.627 56.116 13.881 16.746 9.254 29.75 22.068 39.014 38.441 9.263 16.017 13.895 34.169 13.895 54.458 0 30.254-6.769 58.373-20.308 84.356-13.54 25.983-32.245 46.805-56.117 62.466-23.515 15.305-49.524 22.958-78.028 22.958-21.734 0-40.973-4.628-57.719-13.882-16.39-9.254-29.216-21.89-38.48-37.907-9.263-16.373-13.895-35.059-13.895-56.059 0-32.39 7.304-61.399 21.912-87.026 14.964-25.627 34.382-45.559 58.254-59.797 23.871-14.593 48.99-21.889 75.356-21.889Zm-37.945 249.865c14.964 0 27.612-8.721 37.945-26.161 10.688-17.441 18.527-38.263 23.515-62.467 4.988-24.559 7.482-46.627 7.482-66.203 0-21-3.385-37.551-10.154-49.653-6.413-12.102-15.855-18.153-28.325-18.153-14.608 0-27.257 8.543-37.946 25.628-10.332 17.084-18.171 37.195-23.515 60.33-5.344 23.136-8.017 43.246-8.017 60.331 0 24.203 3.385 43.068 10.155 56.593 7.126 13.17 16.746 19.755 28.86 19.755ZM391.299 349.704c3.206.356 5.522 1.602 6.947 3.738 1.426 2.135 1.96 4.983 1.604 8.542-.713 4.271-2.138 7.652-4.276 10.144s-4.988 3.737-8.551 3.737l-9.62-.534c-13.539 0-27.078-.178-40.617-.533-14.608.355-29.216.533-43.824.533-2.851.356-6.592.534-11.223.534-6.057 0-11.045-1.067-14.965-3.203-3.563-2.492-6.413-6.941-8.551-13.348l-32.601-104.11c-3.562-11.39-7.838-19.042-12.826-22.958-4.632-3.915-12.292-5.873-22.981-5.873h-26.722l-18.705 84.357c-3.207 13.169-1.782 22.601 4.275 28.296s17.459 9.077 34.204 10.144c3.92.356 6.77 1.78 8.551 4.272 2.138 2.135 2.851 5.161 2.138 9.076-.356 4.271-1.603 7.652-3.741 10.144-2.138 2.136-4.632 3.203-7.482 3.203-14.964 0-26.722-.178-35.273-.534-16.39 0-32.957-.178-49.703-.533-14.964.355-30.107.533-45.427.533-9.264.356-23.516.534-42.755.534-2.85 0-5.167-.89-6.948-2.669-1.782-1.78-2.494-4.627-2.138-8.543.356-4.983 1.603-8.72 3.741-11.211 1.782-2.492 5.166-3.916 10.155-4.272 19.24-1.779 32.422-5.339 39.548-10.678 7.482-5.695 12.827-15.305 16.033-28.83l56.651-244.526c2.138-9.966 1.959-17.441-.535-22.424-2.494-5.339-7.126-9.076-13.895-11.212-6.77-2.491-16.211-4.093-28.325-4.805-7.839-.356-10.867-5.339-9.086-14.95C75.801 3.916 79.9 0 86.668 0c14.965 0 26.722.178 35.273.534 17.459 0 34.739.178 51.841.534l52.375-.534C232.926.178 241.834 0 252.879 0c30.997 0 57.363 4.805 79.097 14.415 22.09 9.255 38.658 22.424 49.703 39.509 11.401 16.729 17.102 36.483 17.102 59.263 0 31.322-9.798 56.593-29.394 75.813-19.24 19.221-45.428 31.856-78.563 37.907l27.257 74.212c3.919 10.322 9.263 18.865 16.033 25.628 7.126 6.762 15.32 11.923 24.584 15.483 9.62 3.559 20.487 6.051 32.601 7.474ZM221.881 196.475c20.309 0 37.767-4.093 52.375-12.28 14.608-8.186 25.475-19.042 32.601-32.568 7.482-13.881 11.224-29.008 11.224-45.381 0-25.983-8.017-45.025-24.05-57.127-15.677-12.458-34.204-18.687-55.582-18.687-11.758 0-20.131 2.314-25.119 6.941-4.988 4.627-8.907 13.348-11.757 26.161l-31.532 132.941h51.84ZM1270.14 358.262c-5.56 0-10.48-1.275-14.77-3.826-4.28-2.55-7.61-6.103-9.98-10.657-2.37-4.646-3.56-9.93-3.56-15.851 0-6.194 1.28-11.751 3.83-16.67 2.64-5.01 6.25-8.927 10.81-11.751 4.65-2.915 9.8-4.372 15.45-4.372 6.48 0 11.76 1.594 15.87 4.782 4.1 3.189 6.15 7.333 6.15 12.434 0 3.462-1.05 6.286-3.14 8.472-2.01 2.186-4.61 3.279-7.8 3.279-2.28 0-4.29-.683-6.02-2.049-1.64-1.458-2.46-3.188-2.46-5.192 0-1.185.18-2.187.55-3.007.45-.91 1.09-1.867 1.91-2.869.64-.82 1.1-1.503 1.37-2.05.36-.637.55-1.366.55-2.186 0-1.822-.69-3.325-2.05-4.509-1.28-1.184-2.92-1.776-4.93-1.776-2.92 0-5.7 1.047-8.34 3.143-2.65 2.095-4.79 4.919-6.43 8.471-1.55 3.462-2.33 7.197-2.33 11.205s.82 7.742 2.47 11.204c1.64 3.37 3.83 6.058 6.56 8.062 2.83 1.913 5.93 2.869 9.3 2.869 3.74 0 6.93-.82 9.58-2.459 2.73-1.64 4.92-4.1 6.56-7.379.73-1.366 1.73-2.049 3.01-2.049.64 0 1.1.227 1.37.683.36.455.55 1.047.55 1.776 0 3.462-1.19 6.923-3.56 10.385-2.28 3.461-5.29 6.331-9.03 8.608-3.74 2.186-7.57 3.279-11.49 3.279ZM1268.23 386c-10.94 0-20.97-2.596-30.09-7.788-9.12-5.193-16.32-12.298-21.61-21.316-5.2-9.018-7.8-18.993-7.8-29.924 0-10.931 2.6-20.906 7.8-29.924 5.29-9.018 12.49-16.124 21.61-21.316s19.15-7.788 30.09-7.788c10.94 0 20.97 2.641 30.09 7.925 9.12 5.192 16.32 12.297 21.61 21.315 5.38 9.019 8.07 18.948 8.07 29.788s-2.69 20.769-8.07 29.787c-5.29 9.018-12.49 16.124-21.61 21.316-9.12 5.283-19.15 7.925-30.09 7.925Zm0-8.198c9.3 0 17.82-2.187 25.58-6.559 7.84-4.464 14.04-10.567 18.6-18.31 4.56-7.834 6.84-16.487 6.84-25.961s-2.28-18.082-6.84-25.825c-4.56-7.834-10.76-13.937-18.6-18.31-7.76-4.463-16.28-6.695-25.58-6.695-9.21 0-17.74 2.232-25.58 6.695-7.75 4.373-13.9 10.476-18.46 18.31-4.47 7.743-6.71 16.351-6.71 25.825s2.24 18.127 6.71 25.961c4.56 7.743 10.71 13.846 18.46 18.31 7.84 4.372 16.37 6.559 25.58 6.559Z"
        style="fill:#2f2f34;fill:color(display-p3 .1843 .1843 .2039);fill-opacity:1" />
</svg>