<svg xmlns="http://www.w3.org/2000/svg" width="22" height="18" fill="none">
    <path fill="#2F2F34" fill-rule="evenodd"
        d="M1.563 6.922h16.298c.205 0 .398.082.54.227l2.578 2.62c.475.484.137 1.31-.54 1.31H4.143a.748.748 0 0 1-.54-.228L1.025 8.23c-.479-.484-.137-1.31.54-1.31Zm-.539-3.474L3.603.828A.76.76 0 0 1 4.142.6h16.294c.677 0 1.018.825.54 1.309L18.4 4.529a.76.76 0 0 1-.539.228H1.563c-.676 0-1.018-.825-.539-1.309Zm19.951 11.104-2.578 2.62a.76.76 0 0 1-.54.228H1.564c-.676 0-1.018-.825-.539-1.308l2.579-2.62a.76.76 0 0 1 .539-.228h16.294c.677 0 1.018.825.54 1.308Z"
        clip-rule="evenodd" opacity=".5"
        style="fill:#2f2f34;fill:color(display-p3 .1843 .1843 .2039);fill-opacity:1" />
</svg>