<svg xmlns="http://www.w3.org/2000/svg" width="22" height="24" fill="none">
    <g fill="#2F2F34" clip-path="url(#a)" opacity=".5">
        <path
            d="M8.8 5.344c-.255-.037-.267-.049-.145-.06.23-.037.763.011 1.139.096.873.206 1.66.74 2.497 1.673l.218.254.315-.048c1.346-.218 2.728-.049 3.88.485.314.145.811.436.872.509.024.024.06.182.085.34.084.569.048.993-.134 1.32-.097.182-.097.23-.036.388.048.122.194.207.327.207.291 0 .594-.461.74-1.104l.06-.254.11.121c.617.691 1.102 1.649 1.175 2.327l.024.182-.109-.157a2.047 2.047 0 0 0-.582-.619c-.412-.278-.848-.363-2-.424-1.042-.06-1.636-.145-2.218-.34-.994-.326-1.503-.75-2.679-2.314-.52-.691-.848-1.067-1.175-1.382-.716-.691-1.43-1.055-2.364-1.2Z"
            style="fill:#2f2f34;fill:color(display-p3 .1843 .1843 .2039);fill-opacity:1" />
        <path
            d="M17.83 6.885c.025-.46.085-.763.219-1.042.048-.11.097-.206.109-.206.012 0-.012.085-.049.182-.097.266-.109.642-.048 1.066.085.546.12.618.703 1.212.266.28.582.63.703.776l.206.267-.206-.194c-.255-.243-.837-.703-.97-.764-.085-.048-.097-.048-.157.012-.049.049-.061.122-.061.473-.012.545-.085.885-.267 1.236-.097.182-.109.146-.024-.06.06-.158.073-.23.073-.752 0-1.054-.122-1.309-.86-1.733a9.029 9.029 0 0 0-.68-.352 2.675 2.675 0 0 1-.327-.157c.024-.024.74.182 1.018.303.425.17.497.182.546.17.036-.037.06-.134.072-.437ZM9.297 8.692c-.509-.703-.836-1.794-.763-2.606l.024-.255.121.024c.218.037.594.182.776.291.485.291.703.691.909 1.685.06.291.145.63.182.74.06.181.29.606.485.872.133.194.048.291-.255.267-.46-.049-1.079-.473-1.479-1.018ZM17.213 13.964c-2.4-.97-3.248-1.806-3.248-3.224 0-.206.012-.376.012-.376.012 0 .097.073.206.158.485.388 1.03.557 2.546.776.884.133 1.393.23 1.854.387 1.467.485 2.376 1.48 2.594 2.825.06.388.024 1.127-.073 1.515-.085.303-.327.86-.388.873-.012 0-.036-.061-.036-.158-.024-.51-.279-.994-.703-1.37-.51-.436-1.164-.763-2.764-1.406ZM15.516 14.362a2.866 2.866 0 0 0-.121-.51l-.06-.181.108.133c.158.182.279.4.388.703.085.23.085.303.085.679 0 .364-.012.448-.085.655a2.193 2.193 0 0 1-.509.812c-.436.448-1.006.69-1.818.8-.146.012-.558.048-.921.072-.91.049-1.516.146-2.061.34-.073.024-.146.048-.158.036-.024-.024.352-.242.655-.388.424-.206.86-.315 1.818-.485.473-.072.958-.17 1.079-.218 1.2-.375 1.794-1.309 1.6-2.448Z"
            style="fill:#2f2f34;fill:color(display-p3 .1843 .1843 .2039);fill-opacity:1" />
        <path
            d="M16.618 16.314c-.315-.691-.388-1.346-.218-1.964.024-.06.048-.121.072-.121.025 0 .097.036.17.085.146.097.448.267 1.224.69.982.534 1.54.946 1.928 1.419.339.412.545.885.642 1.467.06.327.024 1.115-.06 1.442-.267 1.03-.873 1.855-1.758 2.327a1.687 1.687 0 0 1-.255.122c-.012 0 .037-.122.11-.267.29-.618.327-1.212.108-1.879-.133-.412-.412-.909-.97-1.745-.666-.97-.823-1.225-.993-1.576ZM7.589 20.023c.896-.751 2-1.284 3.018-1.454.436-.073 1.163-.049 1.563.06.643.17 1.225.534 1.528.982.29.437.424.813.557 1.649.049.327.11.666.121.74.097.436.291.775.534.957.376.279 1.03.29 1.672.048.11-.036.206-.072.206-.06.025.024-.303.242-.52.351a1.716 1.716 0 0 1-.873.206c-.582 0-1.08-.303-1.48-.909-.084-.121-.254-.473-.4-.8-.423-.982-.642-1.273-1.139-1.6-.436-.279-.993-.34-1.418-.133-.557.267-.703.982-.315 1.418.158.182.449.327.691.364a.74.74 0 0 0 .836-.74c0-.29-.109-.46-.4-.594-.387-.17-.812.025-.8.4 0 .158.073.255.23.328.098.048.098.048.025.036-.352-.073-.436-.51-.158-.788.34-.34 1.055-.194 1.297.279.097.194.11.582.024.824-.206.533-.787.812-1.381.655-.4-.11-.57-.219-1.055-.716-.848-.872-1.176-1.042-2.388-1.224l-.23-.036.255-.242Z"
            style="fill:#2f2f34;fill:color(display-p3 .1843 .1843 .2039);fill-opacity:1" />
        <path fill-rule="evenodd"
            d="M1.211.521c2.825 3.43 7.176 8.764 7.394 9.055.182.242.11.473-.194.642-.17.097-.52.194-.69.194a.874.874 0 0 1-.582-.254c-.11-.11-.582-.8-1.649-2.461a157.061 157.061 0 0 0-1.515-2.34c-.048-.024-.048-.024 1.43 2.619.934 1.66 1.237 2.254 1.237 2.327 0 .158-.049.242-.243.46-.327.364-.472.776-.581 1.637-.122.958-.449 1.636-1.382 2.788-.546.679-.63.8-.764 1.079-.17.34-.218.533-.242.97-.025.46.024.75.157 1.187.121.388.255.643.582 1.14.279.436.449.763.449.884 0 .098.024.098.46 0 1.043-.242 1.903-.654 2.376-1.163.29-.315.364-.485.364-.921 0-.28-.013-.34-.085-.51-.122-.266-.352-.484-.849-.824-.654-.448-.933-.812-1.006-1.297-.06-.412.012-.69.376-1.454.376-.788.473-1.115.533-1.915.037-.51.097-.716.243-.873.157-.17.29-.23.666-.279.619-.085 1.019-.242 1.334-.545.278-.255.4-.51.412-.885l.012-.279-.158-.17C8.726 8.68.836 0 .8 0c-.012 0 .182.23.412.521Zm3.722 17.237a.5.5 0 0 0-.158-.667c-.206-.133-.521-.073-.521.109 0 .049.024.097.097.121.109.06.121.121.036.255-.085.133-.085.254.024.34.17.133.4.06.522-.158ZM9.841 11.38c-.29.085-.57.4-.654.715-.049.194-.024.546.06.655.134.17.255.218.594.218.667 0 1.237-.29 1.297-.642.06-.291-.194-.691-.545-.873-.182-.097-.558-.133-.752-.073Zm.776.606c.097-.145.06-.303-.121-.412-.327-.206-.824-.036-.824.279 0 .158.254.327.497.327.157 0 .375-.097.448-.194Z"
            clip-rule="evenodd"
            style="fill:#2f2f34;fill:color(display-p3 .1843 .1843 .2039);fill-opacity:1" />
    </g>
    <defs>
        <clipPath id="a">
            <path fill="#fff" d="M0 0h20.4v23.491H0z" style="fill:#fff;fill-opacity:1"
                transform="translate(.8)" />
        </clipPath>
    </defs>
</svg>