<svg width="39" height="37" viewBox="0 0 39 37" fill="none" xmlns="http://www.w3.org/2000/svg">
    <path
        d="M37.4784 33.5284C37.7855 33.5625 38.0074 33.6819 38.1439 33.8867C38.2804 34.0914 38.3316 34.3645 38.2974 34.7057C38.2292 35.1152 38.0927 35.4394 37.8879 35.6783C37.6832 35.9172 37.4102 36.0366 37.0689 36.0366L36.1475 35.9854C34.8507 35.9854 33.554 35.9684 32.2572 35.9342C30.8581 35.9684 29.4589 35.9854 28.0598 35.9854C27.7868 36.0195 27.4284 36.0366 26.9848 36.0366C26.4047 36.0366 25.9269 35.9342 25.5515 35.7295C25.2103 35.4906 24.9373 35.064 24.7325 34.4498L21.61 24.468C21.2688 23.376 20.8593 22.6423 20.3815 22.2669C19.9379 21.8916 19.2042 21.7039 18.1804 21.7039H15.621L13.8294 29.7916C13.5223 31.0543 13.6588 31.9586 14.2389 32.5046C14.819 33.0506 15.9111 33.3748 17.515 33.4772C17.8903 33.5113 18.1633 33.6478 18.334 33.8867C18.5387 34.0914 18.607 34.3815 18.5387 34.7569C18.5046 35.1664 18.3852 35.4906 18.1804 35.7295C17.9756 35.9342 17.7368 36.0366 17.4638 36.0366C16.0305 36.0366 14.9043 36.0195 14.0853 35.9854C12.5156 35.9854 10.9287 35.9684 9.32481 35.9342C7.89154 35.9684 6.4412 35.9854 4.9738 35.9854C4.08654 36.0195 2.72151 36.0366 0.878734 36.0366C0.605729 36.0366 0.383913 35.9513 0.213285 35.7807C0.0426569 35.61 -0.0255942 35.337 0.0085314 34.9617C0.042657 34.4839 0.162096 34.1256 0.36685 33.8867C0.537478 33.6478 0.861671 33.5113 1.33943 33.4772C3.18221 33.3066 4.44486 32.9653 5.12737 32.4534C5.84401 31.9074 6.35589 30.986 6.66302 29.6893L12.089 6.24498C12.2937 5.28946 12.2767 4.57283 12.0378 4.09507C11.7989 3.58318 11.3553 3.22487 10.7069 3.02011C10.0585 2.78123 9.15419 2.62767 7.99392 2.55942C7.24315 2.52529 6.95309 2.04753 7.12371 1.12614C7.26022 0.375381 7.65266 0 8.30105 0C9.73432 0 10.8605 0.0170627 11.6795 0.0511878C13.3516 0.0511878 15.0067 0.0682504 16.6448 0.102376L21.6612 0.0511878C22.3096 0.0170627 23.1627 0 24.2206 0C27.1896 0 29.7148 0.460695 31.7965 1.38209C33.9123 2.26935 35.4991 3.532 36.557 5.17002C37.649 6.77393 38.1951 8.6679 38.1951 10.8519C38.1951 13.855 37.2566 16.2779 35.3797 18.1207C33.5369 19.9635 31.0287 21.1749 27.855 21.7551L30.4656 28.8702C30.841 29.8599 31.3529 30.6789 32.0013 31.3273C32.6838 31.9757 33.4687 32.4705 34.3559 32.8117C35.2773 33.153 36.3181 33.3919 37.4784 33.5284ZM21.2517 18.8373C23.1969 18.8373 24.869 18.4449 26.2682 17.66C27.6673 16.8751 28.7081 15.8343 29.3907 14.5375C30.1073 13.2066 30.4656 11.7563 30.4656 10.1865C30.4656 7.69532 29.6978 5.8696 28.1621 4.70933C26.6606 3.51493 24.8861 2.91774 22.8385 2.91774C21.7124 2.91774 20.9104 3.13955 20.4327 3.58319C19.9549 4.02682 19.5795 4.86289 19.3065 6.09142L16.2864 18.8373H21.2517Z"
        fill="#D4784E" />
</svg>